<svg aria-hidden="true" focusable="false" version="1.1" width="52" height="107"  viewBox="0 0 259.5301837270341 533.2965879265092" fill="none" stroke="none" stroke-linecap="square" stroke-miterlimit="10" xmlns:xlink="http://www.w3.org/1999/xlink" xmlns="http://www.w3.org/2000/svg"><clipPath id="p.0"><path d="m0 0l259.53018 0l0 533.2966l-259.53018 0l0 -533.2966z" clip-rule="nonzero"/></clipPath>
    <g clip-path="url(#p.0)">
        <path fill="#000000" fill-opacity="0.0" d="m0 0l259.53018 0l0 533.2966l-259.53018 0z" fill-rule="evenodd"/>
        <path fill="#000000" fill-opacity="0.0" d="m87.44357 0l0 531.30707" fill-rule="evenodd"/>
        <path stroke="#000000" stroke-width="24.0" stroke-linejoin="round" stroke-linecap="butt" d="m87.44357 0l0 531.30707" fill-rule="evenodd"/>
        <path fill="#000000" fill-opacity="0.0" d="m250.62993 10.792651l-241.92126 241.92126" fill-rule="evenodd"/>
        <path stroke="#000000" stroke-width="24.0" stroke-linejoin="round" stroke-linecap="butt" d="m250.62993 10.792651l-241.92126 241.92126" fill-rule="evenodd"/>
        <path fill="#000000" fill-opacity="0.0" d="m200.25984 286.69815l-191.62204 -191.62204" fill-rule="evenodd"/>
        <path stroke="#000000" stroke-width="24.0" stroke-linejoin="round" stroke-linecap="butt" d="m200.25984 286.69815l-191.62204 -191.62204" fill-rule="evenodd"/>
        <path fill="#000000" fill-opacity="0.0" d="m200.26012 269.93674l-79.149605 79.1496" fill-rule="evenodd"/>
        <path stroke="#000000" stroke-width="24.0" stroke-linejoin="round" stroke-linecap="butt" d="m200.26012 269.93674l-79.149605 79.1496" fill-rule="evenodd"/>
        <path fill="#000000" fill-opacity="0.0" d="m234.25722 527.1286l-110.89764 -192.09448" fill-rule="evenodd"/>
        <path stroke="#000000" stroke-width="24.0" stroke-linejoin="round" stroke-linecap="butt" d="m234.25722 527.1286l-110.89764 -192.09448" fill-rule="evenodd"/>
        <path fill="#000000" d="m131.33595 33.435696l0 0c0 -8.653912 7.015381 -15.669291 15.669296 -15.669291l0 0c4.1557617 0 8.141296 1.6508656 11.0798645 4.589428c2.9385529 2.9385624 4.589432 6.9241085 4.589432 11.079863l0 0c0 8.653912 -7.015381 15.669292 -15.669296 15.669292l0 0c-8.653915 0 -15.669296 -7.015381 -15.669296 -15.669292z" fill-rule="evenodd"/>
        <path stroke="#000000" stroke-width="1.0" stroke-linejoin="round" stroke-linecap="butt" d="m131.33595 33.435696l0 0c0 -8.653912 7.015381 -15.669291 15.669296 -15.669291l0 0c4.1557617 0 8.141296 1.6508656 11.0798645 4.589428c2.9385529 2.9385624 4.589432 6.9241085 4.589432 11.079863l0 0c0 8.653912 -7.015381 15.669292 -15.669296 15.669292l0 0c-8.653915 0 -15.669296 -7.015381 -15.669296 -15.669292z" fill-rule="evenodd"/>
        <path fill="#000000" fill-opacity="0.0" d="m88.26012 269.93674l-79.590546 79.590546" fill-rule="evenodd"/>
        <path stroke="#000000" stroke-width="24.0" stroke-linejoin="round" stroke-linecap="butt" d="m88.26012 269.93674l-79.590546 79.590546" fill-rule="evenodd"/>
    </g>
</svg>